<?xml version="1.0" encoding="UTF-8" standalone="no"?>
<svg width="18px" height="17px" viewBox="0 0 18 17" version="1.1" xmlns="http://www.w3.org/2000/svg" xmlns:xlink="http://www.w3.org/1999/xlink">
    <!-- Generator: Sketch Beta 41 (35299) - http://www.bohemiancoding.com/sketch -->
    <title>icon_Set point</title>
    <desc>Created with Sketch Beta.</desc>
    <defs></defs>
    <g id="Page-1" stroke="none" stroke-width="1" fill="none" fill-rule="evenodd">
        <g id="功能-copy-5" transform="translate(-139.000000, -591.000000)">
            <g id="card3" transform="translate(10.000000, 495.000000)">
                <g id="Group-8" transform="translate(15.000000, 85.000000)">
                    <g id="icon_Set-point" transform="translate(114.000000, 10.500000)">
                        <path d="M8.99999878,14.5993859 L5.02229378,16.6905891 C4.04363175,17.2051022 3.40295561,16.7319687 3.58869596,15.6490194 L4.34837002,11.2197798 L1.13033908,8.08297485 C0.338584862,7.31120523 0.590581737,6.55567972 1.67792472,6.39767954 L6.1251341,5.75146219 L8.1139866,1.72160687 C8.60331761,0.730113935 9.39973639,0.736306982 9.88601096,1.72160687 L11.8748635,5.75146219 L16.3220728,6.39767954 C17.4162503,6.55667282 17.6564673,7.31602585 16.8696585,8.08297485 L13.6516275,11.2197798 L14.4113016,15.6490194 C14.5982094,16.7387755 13.9502529,17.2018885 12.9777038,16.6905891 L8.99999878,14.5993859 Z" id="Star" fill="#ACA8FF"></path>
                        <path d="M8.99999878,14.5993859 L5.02229378,16.6905891 C4.04363175,17.2051022 3.40295561,16.7319687 3.58869596,15.6490194 L4.34837002,11.2197798 L6.1251341,5.75146219 L8.1139866,1.72160687 C8.60331761,0.730113935 9.39973639,0.736306982 9.88601096,1.72160687 L11.8748635,5.75146219 L13.6516275,11.2197798 L14.4113016,15.6490194 C14.5982094,16.7387755 13.9502529,17.2018885 12.9777038,16.6905891 L8.99999878,14.5993859 Z" id="Star"></path>
                    </g>
                </g>
            </g>
        </g>
    </g>
</svg>