<?xml version="1.0" encoding="UTF-8" standalone="no"?>
<svg width="30px" height="30px" viewBox="0 0 30 30" version="1.1" xmlns="http://www.w3.org/2000/svg" xmlns:xlink="http://www.w3.org/1999/xlink">
    <!-- Generator: Sketch Beta 3.6 (26265) - http://www.bohemiancoding.com/sketch -->
    <title>ic_shop_s copy</title>
    <desc>Created with Sketch Beta.</desc>
    <defs></defs>
    <g id="Page-1" stroke="none" stroke-width="1" fill="none" fill-rule="evenodd">
        <g id="满返红包_案例" transform="translate(-115.000000, -180.000000)">
            <g id="2-消费返红包案例" transform="translate(0.000000, 109.000000)">
                <g id="ic_shop_s-copy" transform="translate(115.000000, 71.000000)">
                    <circle id="Oval-294" fill="#FE9B20" cx="15" cy="15" r="15"></circle>
                    <path d="M23.0012429,15.2581454 C23.0012429,16.3376969 22.1260935,17.2128462 21.0465421,17.2128462 C20.4776834,17.2128462 19.9496755,16.9693606 19.5803465,16.5509135 L19.0918413,15.9974406 L18.603336,16.5509135 C18.234007,16.9693605 17.7059991,17.2128462 17.1371404,17.2128462 C16.5682818,17.2128462 16.0402739,16.9693605 15.6709449,16.5509135 L15.1824396,15.9974406 L14.6939344,16.5509135 C14.3246054,16.9693605 13.7965975,17.2128462 13.2277388,17.2128462 C12.6588802,17.2128462 12.1308723,16.9693605 11.7615433,16.5509135 L11.273038,15.9974406 L10.7845327,16.5509135 C10.4152037,16.9693605 9.88719583,17.2128462 9.31833718,17.2128462 C8.23878572,17.2128462 7.36363636,16.3376969 7.36363636,15.2581454 L7.36363638,14.6065785 C7.36363638,14.33373 7.45827223,13.8439022 7.55755398,13.5956979 L9.68278208,8.28262761 C9.71703538,8.19699433 9.87573836,8.09090909 9.98250002,8.09090909 L20.3823793,8.09090909 C20.479826,8.09090909 20.6514508,8.20601161 20.6820971,8.28262758 L22.8073254,13.5956979 C22.9079115,13.8471634 23.0012429,14.3361467 23.0012429,14.6065785 L23.0012429,15.2581454 L23.0012429,15.2581454 L23.0012429,15.2581454 Z" id="Shape" stroke="#FFFFFF" stroke-width="1.20000005"></path>
                    <rect id="Rectangle-61" fill="#FFFFFF" x="10.3636364" y="9.39404297" width="9.81818182" height="1.30313388" rx="12"></rect>
                    <path d="M8.0152033,17.2128462 L22.349676,17.2128462 L22.349676,22.4256326 C22.349676,23.145195 21.7699938,23.7285156 21.0523052,23.7285156 L9.31257407,23.7285156 C8.59605598,23.7285156 8.0152033,23.1502935 8.0152033,22.4256326 L8.0152033,17.2128462 L8.0152033,17.2128462 L8.0152033,17.2128462 Z M9.31833718,19.9808896 L9.31833718,17.2128462 L21.0465421,17.2128462 L21.0465421,22.4253817 L9.31833718,22.4253817 L9.31833718,19.9808896 L9.31833718,19.9808896 L9.31833718,19.9808896 Z" id="Rectangle-1033" fill="#FFFFFF"></path>
                </g>
            </g>
        </g>
    </g>
</svg>