<?xml version="1.0" encoding="UTF-8" standalone="no"?>
<svg width="750px" height="228px" viewBox="0 0 750 228" version="1.1" xmlns="http://www.w3.org/2000/svg" xmlns:xlink="http://www.w3.org/1999/xlink">
    <!-- Generator: Sketch Beta 3.8 (29671) - http://www.bohemiancoding.com/sketch -->
    <title>title  time  and backgroud</title>
    <desc>Created with Sketch Beta.</desc>
    <defs></defs>
    <g id="Page-1" stroke="none" stroke-width="1" fill="none" fill-rule="evenodd">
        <g id="营销详情---copy" transform="translate(0.000000, -690.000000)">
            <g id="title--time--and-backgroud" transform="translate(-82.000000, 564.000000)">
                <g id="Group-7" transform="translate(82.000000, 126.000000)">
                    <rect id="Rectangle-175" fill="#2F323A" x="0" y="0" width="750" height="228"></rect>
                    <g id="Group-4" transform="translate(0.000000, 224.000000)" fill="#FFFFFF">
                        <circle id="Oval-122" cx="102" cy="4" r="4"></circle>
                        <circle id="Oval-122-Copy-24" cx="438" cy="4" r="4"></circle>
                        <circle id="Oval-122-Copy-8" cx="214" cy="4" r="4"></circle>
                        <circle id="Oval-122-Copy-25" cx="550" cy="4" r="4"></circle>
                        <circle id="Oval-122-Copy-16" cx="326" cy="4" r="4"></circle>
                        <circle id="Oval-122-Copy-26" cx="662" cy="4" r="4"></circle>
                        <circle id="Oval-122-Copy-48" cx="746" cy="4" r="4"></circle>
                        <circle id="Oval-122-Copy" cx="88" cy="4" r="4"></circle>
                        <circle id="Oval-122-Copy-27" cx="424" cy="4" r="4"></circle>
                        <circle id="Oval-122-Copy-9" cx="200" cy="4" r="4"></circle>
                        <circle id="Oval-122-Copy-28" cx="536" cy="4" r="4"></circle>
                        <circle id="Oval-122-Copy-17" cx="312" cy="4" r="4"></circle>
                        <circle id="Oval-122-Copy-29" cx="648" cy="4" r="4"></circle>
                        <circle id="Oval-122-Copy-49" cx="732" cy="4" r="4"></circle>
                        <circle id="Oval-122-Copy-2" cx="74" cy="4" r="4"></circle>
                        <circle id="Oval-122-Copy-30" cx="410" cy="4" r="4"></circle>
                        <circle id="Oval-122-Copy-10" cx="186" cy="4" r="4"></circle>
                        <circle id="Oval-122-Copy-31" cx="522" cy="4" r="4"></circle>
                        <circle id="Oval-122-Copy-18" cx="298" cy="4" r="4"></circle>
                        <circle id="Oval-122-Copy-32" cx="634" cy="4" r="4"></circle>
                        <circle id="Oval-122-Copy-50" cx="718" cy="4" r="4"></circle>
                        <circle id="Oval-122-Copy-3" cx="60" cy="4" r="4"></circle>
                        <circle id="Oval-122-Copy-33" cx="396" cy="4" r="4"></circle>
                        <circle id="Oval-122-Copy-11" cx="172" cy="4" r="4"></circle>
                        <circle id="Oval-122-Copy-34" cx="508" cy="4" r="4"></circle>
                        <circle id="Oval-122-Copy-19" cx="284" cy="4" r="4"></circle>
                        <circle id="Oval-122-Copy-35" cx="620" cy="4" r="4"></circle>
                        <circle id="Oval-122-Copy-51" cx="704" cy="4" r="4"></circle>
                        <circle id="Oval-122-Copy-4" cx="46" cy="4" r="4"></circle>
                        <circle id="Oval-122-Copy-36" cx="382" cy="4" r="4"></circle>
                        <circle id="Oval-122-Copy-12" cx="158" cy="4" r="4"></circle>
                        <circle id="Oval-122-Copy-37" cx="494" cy="4" r="4"></circle>
                        <circle id="Oval-122-Copy-20" cx="270" cy="4" r="4"></circle>
                        <circle id="Oval-122-Copy-38" cx="606" cy="4" r="4"></circle>
                        <circle id="Oval-122-Copy-52" cx="690" cy="4" r="4"></circle>
                        <circle id="Oval-122-Copy-5" cx="32" cy="4" r="4"></circle>
                        <circle id="Oval-122-Copy-39" cx="368" cy="4" r="4"></circle>
                        <circle id="Oval-122-Copy-13" cx="144" cy="4" r="4"></circle>
                        <circle id="Oval-122-Copy-40" cx="480" cy="4" r="4"></circle>
                        <circle id="Oval-122-Copy-21" cx="256" cy="4" r="4"></circle>
                        <circle id="Oval-122-Copy-41" cx="592" cy="4" r="4"></circle>
                        <circle id="Oval-122-Copy-53" cx="676" cy="4" r="4"></circle>
                        <circle id="Oval-122-Copy-6" cx="18" cy="4" r="4"></circle>
                        <circle id="Oval-122-Copy-42" cx="354" cy="4" r="4"></circle>
                        <circle id="Oval-122-Copy-14" cx="130" cy="4" r="4"></circle>
                        <circle id="Oval-122-Copy-43" cx="466" cy="4" r="4"></circle>
                        <circle id="Oval-122-Copy-22" cx="242" cy="4" r="4"></circle>
                        <circle id="Oval-122-Copy-44" cx="578" cy="4" r="4"></circle>
                        <circle id="Oval-122-Copy-7" cx="4" cy="4" r="4"></circle>
                        <circle id="Oval-122-Copy-45" cx="340" cy="4" r="4"></circle>
                        <circle id="Oval-122-Copy-15" cx="116" cy="4" r="4"></circle>
                        <circle id="Oval-122-Copy-46" cx="452" cy="4" r="4"></circle>
                        <circle id="Oval-122-Copy-23" cx="228" cy="4" r="4"></circle>
                        <circle id="Oval-122-Copy-47" cx="564" cy="4" r="4"></circle>
                    </g>
                </g>
            </g>
        </g>
    </g>
</svg>
