<?xml version="1.0" encoding="UTF-8" standalone="no"?>
<svg width="382px" height="38px" viewBox="0 0 382 38" version="1.1" xmlns="http://www.w3.org/2000/svg" xmlns:xlink="http://www.w3.org/1999/xlink">
    <!-- Generator: Sketch Beta 39 (31533) - http://www.bohemiancoding.com/sketch -->
    <title>logo</title>
    <desc>Created with Sketch Beta.</desc>
    <defs></defs>
    <g id="Page-1" stroke="none" stroke-width="1" fill="none" fill-rule="evenodd">
        <g id="渠道商－开通会员服务-copy-2" transform="translate(-184.000000, -1254.000000)" fill="#D8D8D8">
            <g id="logo" transform="translate(184.000000, 1254.000000)">
                <path d="M134.155889,30.2924649 L130.361487,26.3182571 L131.955451,24.7642052 L135.790219,28.7379195 L134.155889,30.2924649 Z M121.131462,28.7260753 L117.296201,24.7933221 L118.931023,23.2392701 L122.766284,27.1720234 L121.131462,28.7260753 Z M131.009804,32.8685688 L127.454645,36.3862831 L110.223294,36.3724649 L110.233632,23.3142831 L112.4385,23.3157636 L112.430132,34.1640234 L126.557732,34.1748805 L129.45916,31.3115558 L131.009804,32.8685688 Z M107.918003,8.45332208 L107.910127,18.4414 L130.367395,18.4586727 L130.375271,8.47059481 L107.918003,8.45332208 Z M132.582109,6.26215325 L132.570786,20.6710623 L105.703289,20.6498416 L105.714611,6.24093247 L111.022737,6.24488052 L109.597129,1.74114026 L111.762124,1.08773766 L113.350181,6.24685455 L124.619673,6.25573766 L127.196204,1.26391948 L129.155431,2.24797143 L127.110549,6.25771169 L132.582109,6.26215325 Z M102.021124,30.3077636 L105.862291,26.2995039 L107.49416,27.8560234 L103.652993,31.8238156 L102.021124,30.3077636 Z" id="Fill-1"></path>
                <path d="M154.016197,5.86956883 L141.480592,5.85920519 L141.479115,8.07060779 L152.993757,8.07949091 L142.325324,22.8076987 L144.120625,24.0779844 L149.720666,16.3047636 L149.704422,37.4682961 L151.90929,37.4692831 L151.92652,15.4875169 L171.403105,15.5028156 L171.388337,34.9469714 L166.773816,34.9430234 L166.772831,37.153439 L173.591728,37.1588675 L173.60945,13.294374 L151.887138,13.2771013 L155.648066,8.08146494 L178.064476,8.09923117 L178.066445,5.88881558 L156.221066,5.87154286 L156.225004,0.836296104 L154.020136,0.835309091 L154.016197,5.86956883 Z M159.10871,20.4872312 L162.944463,24.3380623 L164.497076,22.7015948 L160.661816,18.8922182 L159.10871,20.4872312 Z M159.101819,29.5336987 L162.937079,33.3435688 L164.490185,31.7485558 L160.654924,27.8977247 L159.101819,29.5336987 Z" id="Fill-2"></path>
                <path d="M200.687047,2.42622597 L217.63239,2.43955065 L217.629437,6.16503117 L210.844998,14.7150312 L210.842045,18.0309013 L218.845339,18.0373169 L218.843862,20.247239 L210.840568,20.2413169 L210.828261,36.3696026 L203.723357,36.364174 L203.724834,34.1532649 L208.62487,34.157213 L208.635699,20.2393429 L199.24421,20.2319403 L199.246179,18.0220182 L208.637176,18.0289273 L208.640622,13.8943299 L215.42506,5.34432987 L215.425553,4.64848571 L200.685571,4.63664156 L200.687047,2.42622597 Z M194.054228,26.0410052 L194.067027,9.74887532 L187.860019,9.74394026 L187.84722,26.0360701 L190.949001,28.6580701 L194.054228,26.0410052 Z M187.867403,0.820355844 L187.861988,7.53401818 L199.580921,7.5429013 L199.579444,9.75331688 L196.271895,9.75035584 L196.258112,27.0660182 L192.662586,30.0922 L198.53879,35.0090052 L197.108259,36.6864338 L190.94654,31.5238623 L184.736086,36.6765636 L183.348875,34.997161 L189.232462,30.0897325 L185.641859,27.0576286 L185.655151,9.74196623 L182.348094,9.7394987 L182.349571,7.52957662 L185.65712,7.53204416 L185.662535,0.818381818 L187.867403,0.820355844 Z" id="Fill-3"></path>
                <path d="M255.839823,13.2766078 L255.842285,10.1655429 L242.776014,10.1556727 L242.773553,13.2662442 L255.839823,13.2766078 Z M255.833916,20.7675429 L242.767646,20.7571792 L242.765184,23.8277766 L255.831455,23.8376468 L255.833916,20.7675429 Z M255.827517,29.3229714 L255.829978,26.0480623 L242.763707,26.0376987 L242.761246,29.3126078 L255.827517,29.3229714 Z M227.015068,10.1428416 L227.012607,13.2539065 L240.568684,13.2647636 L240.571146,10.1536987 L227.015068,10.1428416 Z M224.223416,29.2982961 L240.556378,29.3106338 L240.558839,26.0357247 L223.082831,26.0224 L223.084308,23.8124779 L240.560316,23.8258026 L240.562777,20.7552052 L224.230308,20.7428675 L224.231785,18.5324519 L240.564746,18.5452831 L240.567207,15.4746857 L224.805769,15.4628416 L224.811677,7.93094545 L240.573115,7.94278961 L240.575084,5.15941299 L223.099076,5.14559481 L223.101045,2.93567273 L240.577053,2.9489974 L240.57853,0.779542857 L242.783398,0.781516883 L242.781921,2.95097143 L259.76763,2.9642961 L259.766153,5.17421818 L242.779952,5.16138701 L242.777983,7.94476364 L258.049122,7.9571013 L258.043215,15.4885039 L242.772076,15.4766597 L242.769615,18.5472571 L258.040754,18.5591013 L258.036816,23.8396208 L259.751385,23.8406078 L259.749909,26.0510234 L258.034847,26.0500364 L258.030909,31.535361 L242.759277,31.5235169 L242.755339,36.8040364 L234.589104,36.7971273 L234.590581,34.5867117 L240.551947,34.5911532 L240.554409,31.5215429 L224.221939,31.5087117 L224.223416,29.2982961 Z" id="Fill-4"></path>
                <path d="M276.994255,5.47427013 L263.927984,5.4644 L263.926507,7.67481558 L275.60409,7.6836987 L264.692969,19.7918805 L266.283487,21.2669714 L269.389698,17.8311792 L269.374438,37.5615688 L271.578814,37.5635429 L271.596536,15.4179325 L278.543422,7.68616623 L300.593093,7.70343896 L300.595062,5.49351688 L279.198631,5.47673766 L279.202077,0.892062338 L276.997209,0.889594805 L276.994255,5.47427013 Z M286.864721,18.7856208 L277.391515,18.7787117 L277.390531,20.9891273 L286.863245,20.9960364 L286.853399,33.6860623 L275.379123,33.6776727 L275.378139,35.8880883 L300.571433,35.9073351 L300.57291,33.697413 L289.058268,33.6885299 L289.068113,20.9985039 L298.582178,21.005413 L298.583654,18.7949974 L289.06959,18.7875948 L289.076482,10.3550494 L286.871613,10.3535688 L286.864721,18.7856208 Z" id="Fill-5"></path>
                <path d="M335.541711,8.38526753 L324.353443,8.37687792 L324.352459,10.5872935 L335.540235,10.5961766 L335.520544,35.4432416 L330.212418,35.439787 L330.210941,37.6502026 L337.723443,37.6561247 L337.745103,10.5981506 L340.562845,10.5996312 L340.56383,8.38921558 L337.746088,8.38773506 L337.751995,0.978722078 L335.547619,0.976748052 L335.541711,8.38526753 Z M316.264495,14.0605922 L318.182371,15.0851117 L320.145536,11.5259429 L320.125353,37.6423065 L322.330222,37.643787 L322.354343,7.47524156 L325.052956,2.56435844 L323.134588,1.53983896 L316.264495,14.0605922 Z M305.58917,37.6309558 L307.794039,37.6324364 L307.819637,4.63856623 L313.209479,4.64300779 L313.204064,11.6429039 L310.01466,17.5348779 L310.012691,20.0729818 L313.197173,20.0754494 L313.189789,30.3502545 L310.004814,30.347787 L310.002845,32.5582026 L315.39318,32.5626442 L315.404503,17.8670078 L312.382469,17.8650338 L315.408933,12.217839 L315.416317,2.43456623 L305.616737,2.42667013 L305.58917,37.6309558 Z M326.262951,20.9864623 L330.179928,24.8787481 L331.692175,23.3242026 L327.815564,19.4728779 L326.262951,20.9864623 Z" id="Fill-6"></path>
                <path d="M376.659482,4.1609013 L359.306542,4.14708312 L359.289805,26.0469273 L356.142735,29.5651351 L357.775096,31.0397325 L361.493196,26.826174 L361.501073,16.5109013 L373.260864,16.5197844 L373.249049,31.9112649 L375.453918,31.913239 L375.465732,16.5222519 L381.345874,16.5266935 L381.347843,14.3162779 L361.503042,14.2999922 L361.509441,6.35947273 L377.392962,6.37181039 L380.825055,3.79521299 L379.520052,1.99342078 L376.659482,4.1609013 Z M348.975312,5.0803039 L352.850939,8.97258961 L354.403552,7.45900519 L350.487068,3.52625195 L348.975312,5.0803039 Z M345.822828,15.0664078 L350.968013,15.0698623 L350.956691,29.6016545 L346.133941,35.4926416 L347.847526,36.9267714 L352.139611,31.6497065 L356.994359,36.5245636 L381.942503,36.5443039 L381.944472,34.3343818 L357.853366,34.3146416 L353.16156,29.5626675 L353.174359,12.8614208 L345.824797,12.8554987 L345.822828,15.0664078 Z" id="Fill-7"></path>
                <g id="Group-20" transform="translate(0.000000, 0.149532)">
                    <path d="M41.1684747,6.12609351 C41.168967,5.20669091 41.9132763,4.46248312 42.8298794,4.46347013 C43.7464825,4.46396364 44.4893149,5.20915844 44.4883304,6.12856104 C44.4878381,7.04747013 43.7440211,7.79217143 42.827418,7.79167792 C41.9103227,7.79069091 41.1679825,7.0450026 41.1684747,6.12609351 M42.7909902,13.5721195 C43.4870572,13.572613 47.5202093,8.77079481 47.5221784,6.15422338 C47.5241474,3.53814545 45.4103485,1.41557403 42.8003433,1.4136 C40.1913227,1.41162597 38.0740778,3.53074286 38.0721088,6.14682078 C38.0696474,8.76339221 41.9556113,13.571626 42.7909902,13.5721195" id="Fill-8"></path>
                    <path d="M6.57099072,29.4986104 C6.14124072,29.4541948 5.79566856,29.0954156 5.79025361,28.6557013 L5.80452938,10.127987 L10.9398696,10.1319351 L10.9251015,29.5020649 L6.57099072,29.4986104 Z M15.3417304,10.1353896 L15.3451763,5.72837662 L15.3451763,5.72294805 L5.80797526,5.71505195 L5.81142113,1.32679221 L1.41005258,1.32333766 L1.4066067,5.71209091 L0.00364278351,5.71061039 L0.000196907216,10.1235455 L1.40316082,10.1245325 L1.38740825,30.3918571 C1.38543918,32.6792597 3.50465309,33.9135195 5.78631546,33.9154935 C5.84637216,33.9154935 5.9059366,33.9135195 5.96500876,33.9110519 L10.9216557,33.9145065 L10.9196866,36.2093117 L15.3215474,36.2127662 L15.3230242,33.917961 L17.2945577,33.9199351 L17.2980036,29.507 L15.3264701,29.5055195 L15.3417304,10.1353896 Z" id="Fill-10"></path>
                    <path d="M72.6928278,31.8300831 L48.4008768,31.8113299 C48.3910314,31.8103429 48.3811861,31.8078753 48.3713407,31.8078753 C47.3257634,31.7590182 46.9304722,31.3212779 46.8344799,30.3648623 L46.8428485,19.4233299 L46.8394026,19.4233299 C46.8408794,19.3774338 46.8428485,19.3315377 46.8428485,19.2851481 C46.8448175,17.0160052 45.0111191,15.1747325 42.7471784,15.1727584 C42.6438021,15.1727584 42.5414103,15.1776935 42.4400031,15.1850961 L38.0337119,15.1816416 L38.030266,19.5945766 L41.3904876,19.5970442 C42.2224206,19.626161 42.4070211,19.7885247 42.4400031,20.6235377 L42.4316345,32.0052779 L42.4331113,32.0052779 C42.4326191,32.0250182 42.4311423,32.0447584 42.4311423,32.0649922 C42.4296655,34.3726286 44.2938845,36.2449922 46.5957299,36.2464727 C46.7468562,36.2464727 46.8955211,36.2380831 47.0417247,36.2227844 L72.689382,36.2430182 L72.6928278,31.8300831 Z" id="Fill-12"></path>
                    <path d="M32.6775402,7.26905455 C33.005883,6.69165195 33.1944216,6.02443117 33.1949139,5.31279481 C33.1963907,3.12310649 31.0860376,1.34648312 28.9018443,1.34450909 C28.8555711,1.34450909 28.8102825,1.34648312 28.7645015,1.34796364 L17.310901,1.33908052 L17.3074552,5.75201558 L27.4732825,5.75991169 C27.8547902,5.83443117 28.1915015,6.14682078 28.1275067,6.54261299 C28.1211072,6.5816 28.1171691,6.61861299 28.1142155,6.65414545 L24.1775479,15.2263532 L17.3182851,15.2209247 L17.3148392,19.6333662 L24.2843701,19.6387948 L24.275017,31.4518597 C24.2385892,31.6403792 24.0933701,31.7879377 23.9068005,31.8288987 L19.0111948,31.8249506 L19.007749,36.2102494 L24.2115144,36.2141974 C24.2316974,36.2146909 24.2513881,36.2156779 24.2715711,36.2156779 C26.5428959,36.2176519 28.6694938,34.6932104 28.6758933,32.4171584 L28.6758933,32.4171584 L28.6758933,32.4107429 L28.6758933,32.4102494 L28.6758933,32.4097558 L28.6857387,19.6422494 L34.7012541,19.6471844 L34.7047,15.2342494 L29.0214655,15.2298078 L32.6775402,7.26905455 Z" id="Fill-14"></path>
                    <path d="M55.2680652,16.1513325 L62.1593255,16.156761 L62.1480034,30.6140338 L66.5498642,30.6174883 L66.5611863,16.1602156 L71.127957,16.1636701 L71.1314028,11.7512286 L55.2715111,11.7383974 L55.2739724,8.46546234 C55.2793874,8.42696883 55.2828332,8.38798182 55.2828332,8.34751429 C55.2843101,6.05813766 55.2793874,5.80842338 57.2740575,5.78276104 L71.1358332,5.79361818 L71.1392791,1.38117662 L55.4300214,1.36883896 C55.3783332,1.36735844 55.3271374,1.36538442 55.274957,1.36538442 C52.8539827,1.36341039 50.8903255,3.32904675 50.8883564,5.75611169 C50.8883564,5.76696883 50.8888487,5.77733247 50.8888487,5.78818961 L50.8745729,5.78818961 L50.8553745,30.6100857 L55.256743,30.6130468 L55.2680652,16.1513325 Z" id="Fill-16"></path>
                    <polygon id="Fill-18" points="89.8261186 37.3275481 88.8683619 37.3270545 88.9113335 0.344171429 89.8683619 0.344664935"></polygon>
                </g>
            </g>
        </g>
    </g>
</svg>