<svg width="54" height="64" viewBox="0 0 54 64" xmlns="http://www.w3.org/2000/svg" xmlns:xlink="http://www.w3.org/1999/xlink"><title>Group 2</title><desc>Created with Sketch Beta.</desc><defs><path d="M0 6c10 0 25-6 25-6s15 6 25 6c0 0-1 26-2 35s-22 19-22 19-23-10-24-19-2-35-2-35z" id="a"/><mask id="c" x="0" y="0" width="50" height="60"><use xlink:href="#a"/></mask><path d="M0 6c10 0 25-6 25-6s15 6 25 6c0 0-1 26-2 35s-22 19-22 19-23-10-24-19-2-35-2-35z" id="b"/><mask id="e" x="0" y="0" width="50" height="60"><use xlink:href="#b"/></mask></defs><g transform="translate(2 2)" fill="none"><g><mask id="d"><use xlink:href="#a"/></mask><g><use stroke="#FF8100" mask="url(#c)" stroke-width="5" xlink:href="#a"/><use stroke="#F8E81C" stroke-width="2" xlink:href="#a"/></g><path fill="#F7B422" mask="url(#d)" d="M19-2h12l-4 45h-4z"/><path fill="#F7B422" mask="url(#d)" d="M-2.225 3.752l11.124-4.5 13.167 43.215-3.708 1.5z"/><path fill="#F7B422" mask="url(#d)" d="M-19.715 22.037l7.056-9.708 34.053 29.696-2.352 3.236z"/><path fill="#F7B422" mask="url(#d)" d="M52.991 2.502l-11.124-4.5-13.167 43.215 3.708 1.5z"/><path fill="#F7B422" mask="url(#d)" d="M69.46 21.703l-7.056-9.708-34.053 29.696 2.352 3.236z"/></g><g><path d="M47 44c0 5.253-21.092 16-21.092 16s-20.908-8.749-20.908-14l-1-4c2.559-5.385 4.879-11.679 6.432-14.478.735-1.321 1.601-2.555 2.623-3.659.821-.89 1.743-1.697 2.775-2.396 1.802-1.223 3.94-2.119 6.47-2.573 1.354-.241 2.821-.358 4.407-.326l.269.009c3.421.112 6.099 1.144 8.288 2.749 1.33.975 2.479 2.159 3.505 3.478 2.72 3.492 8.357 14.774 9.048 16.477l-.816 2.719z" fill="#985B39"/><path d="M16.015 21.305s-.676-7.446-6.399-4.305c-5.722 3.141.033 8.658 3.295 6.987l3.104-2.681z" fill="#985B39"/><path d="M35.212 21.701s.648-7.215 6.37-4.074-.033 8.658-3.295 6.987l-3.076-2.912z" fill="#985B39"/><path d="M22.131 19.003c1.498-.957 2.979-2.24 3.805-3.875 0 0 1.695.95.429 3.264 1.175-.99 1.996-1.905 1.996-1.905 0 .638-.411 1.394-.875 2.045l-5.355.471z" fill="#985B39"/><path d="M20.071 27.7c0 .741-.592 1.341-1.324 1.341-.731 0-1.324-.6-1.324-1.341s.592-1.341 1.324-1.341c.731 0 1.324.6 1.324 1.341" fill="#30211A"/><path d="M33.91 27.7c0 .741-.593 1.341-1.324 1.341-.731 0-1.324-.6-1.324-1.341s.592-1.341 1.324-1.341c.731 0 1.324.6 1.324 1.341" fill="#30211A"/><path d="M25.985 39.547s4.614-.251 6.189-3.317c1.131-2.201.833-3.92-.119-5.457-.738-1.191-2.953-3.172-7.231-2.925-4.405.254-5.981 3.467-6.159 4.312-.101.48-1.184 3.693 1.279 5.699 1.815 1.478 4.225 1.598 6.04 1.689" fill="#EBCCAD"/><path d="M25.435 28.566c-.707.013-3.273-.067-2.739.917.534.984 1.802 2.337 2.739 2.334.936-.004 2.532-1.258 2.852-2.344.32-1.087-2.118-.92-2.852-.906" fill="#30211A"/></g><mask><use xlink:href="#b"/></mask><g><use stroke="#FF8100" mask="url(#e)" stroke-width="5" xlink:href="#b"/><use stroke="#FBFBFB" stroke-width="2" xlink:href="#b"/></g></g></svg>
